<svg class="svg-icon" viewBox="0 0 1024 1024" version="1.1" xmlns="http://www.w3.org/2000/svg">
	<path id="path-1" d="M737.088 872.064l-203.808-181.184a32 32 0 0 0-42.528 0l-203.84 181.184a32 32 0 0 0 21.248 55.904h407.648a32 32 0 0 0 21.248-55.936z m158.88-776.032H128a96 96 0 0 0-96 96V736a96 96 0 0 0 96 96h64a32 32 0 0 0 0-64H128a32 32 0 0 1-32-32V192.032a32 32 0 0 1 32-32h767.968a32 32 0 0 1 32 32V736a32 32 0 0 1-32 32h-64a32 32 0 0 0 0 64h64a96 96 0 0 0 96-96V192.032a96 96 0 0 0-96-96z"  />
</svg>